<svg id="visual" viewBox="0 0 1920 1080" width="1920" height="1080" xmlns="http://www.w3.org/2000/svg" xmlns:xlink="http://www.w3.org/1999/xlink" version="1.1"><rect x="0" y="0" width="1920" height="1080" fill="#ffffff00"></rect><defs><linearGradient id="grad1_0" x1="43.8%" y1="0%" x2="100%" y2="100%"><stop offset="14.444444444444446%" stop-color="#001220" stop-opacity="1"></stop><stop offset="85.55555555555554%" stop-color="#001220" stop-opacity="1"></stop></linearGradient></defs><defs><linearGradient id="grad2_0" x1="0%" y1="0%" x2="56.3%" y2="100%"><stop offset="14.444444444444446%" stop-color="#001220" stop-opacity="1"></stop><stop offset="85.55555555555554%" stop-color="#001220" stop-opacity="1"></stop></linearGradient></defs><g transform="translate(1920, 0)"><path d="M0 702C-88.9 690.9 -177.9 679.8 -268.6 648.6C-359.4 617.3 -452 566 -487.9 487.9C-523.8 409.8 -503.1 305 -529.4 219.3C-555.6 133.5 -628.8 66.8 -702 0L0 0Z" fill="#46b7c6" stroke="#46b7c6"></path></g><g transform="translate(0, 1080)"><path d="M0 -702C102.1 -702.3 204.2 -702.7 268.6 -648.6C333.1 -594.5 359.8 -485.9 416.5 -416.5C473.2 -347 559.9 -316.6 612.5 -253.7C665.1 -190.8 683.6 -95.4 702 0L0 0Z" fill="#46b7c6" stroke="#363636"></path></g></svg>